<svg width="586" height="419" viewBox="0 0 586 419" fill="none" xmlns="http://www.w3.org/2000/svg">
<path d="M25.7813 314.4C1.05594 329.046 -3.38556 359.96 2.08134 378.6C7.12974 396.907 25.3793 418.59 58.1813 418.5C58.1813 418.5 481.745 418.59 524.381 418.5C561.218 418.59 577.985 397.512 583.181 379.2C588.497 360.566 588.497 331.523 560.081 314.1L313.181 168.3V143.4C313.166 115.332 282.581 103.2 282.581 103.2C262.607 93.438 264.281 72.6 264.281 72.6C264.386 48.063 286.331 40.194 296.081 40.2C312.542 40.194 328.652 49.305 330.281 70.2C333.023 102.816 370.043 94.524 370.181 68.4C370.043 43.47 347.414 -0.0419696 295.781 3.03831e-05C240.041 -0.0419696 224.021 54.495 224.081 71.7C224.021 84.744 226.079 96.756 233.981 110.4C247.745 133.755 275.042 137.415 275.081 152.7V168.3L25.7813 314.4Z" fill="black"/>
<path d="M292.467 205.815L534.267 347.115C549.402 357.664 541.278 377.664 524.967 377.715H59.0666C43.7771 378.289 34.4021 357.04 49.4666 347.715L292.467 205.815Z" fill="white"/>
</svg>
